<svg width="16" height="17" viewBox="0 0 16 17" fill="none" xmlns="http://www.w3.org/2000/svg">
<g clip-path="url(#clip0_20_66)">
<path fill-rule="evenodd" clip-rule="evenodd" d="M1.33331 8.50004C1.33331 4.81814 4.31808 1.83337 7.99998 1.83337C11.6819 1.83337 14.6666 4.81814 14.6666 8.50004C14.6666 12.1819 11.6819 15.1667 7.99998 15.1667C4.31808 15.1667 1.33331 12.1819 1.33331 8.50004ZM8 5.83333C8 5.46514 7.70152 5.16667 7.33333 5.16667C6.96514 5.16667 6.66667 5.46514 6.66667 5.83333V9.16667C6.66667 9.53486 6.96514 9.83333 7.33333 9.83333H10.6667C11.0349 9.83333 11.3333 9.53486 11.3333 9.16667C11.3333 8.79848 11.0349 8.5 10.6667 8.5H8V5.83333Z" fill="#D94C44"/>
</g>
<defs>
<clipPath id="clip0_20_66">
<rect width="16" height="16" fill="white" transform="translate(0 0.5)"/>
</clipPath>
</defs>
</svg>
