<svg width="16" height="17" viewBox="0 0 16 17" fill="none" xmlns="http://www.w3.org/2000/svg">
<g clip-path="url(#clip0_20_117)">
<path fill-rule="evenodd" clip-rule="evenodd" d="M6.50993 2.4984C7.3049 1.61039 8.69521 1.6104 9.49018 2.4984L9.95734 3.02025C10.0924 3.17111 10.2887 3.25241 10.4909 3.24123L11.1902 3.20257C12.3802 3.13678 13.3633 4.11988 13.2975 5.30992L13.2589 6.00926C13.2477 6.21143 13.329 6.40771 13.4799 6.54277L14.0017 7.00993C14.8897 7.8049 14.8897 9.19521 14.0017 9.99018L13.4799 10.4573C13.329 10.5924 13.2477 10.7887 13.2589 10.9909L13.2975 11.6902C13.3633 12.8802 12.3802 13.8633 11.1902 13.7975L10.4908 13.7589C10.2887 13.7477 10.0924 13.829 9.95734 13.9799L9.49017 14.5017C8.69521 15.3897 7.3049 15.3897 6.50993 14.5017L6.04277 13.9799C5.90771 13.829 5.71143 13.7477 5.50926 13.7589L4.80992 13.7975C3.61988 13.8633 2.63678 12.8802 2.70257 11.6902L2.74123 10.9908C2.75241 10.7887 2.67111 10.5924 2.52025 10.4573L1.9984 9.99017C1.11039 9.19521 1.1104 7.8049 1.9984 7.00993L2.52025 6.54277C2.67111 6.40771 2.75241 6.21143 2.74123 6.00926L2.70257 5.30992C2.63678 4.11988 3.61988 3.13678 4.80992 3.20257L5.50926 3.24123C5.71143 3.25241 5.90771 3.17111 6.04277 3.02025L6.50993 2.4984ZM6.33333 5.83333C5.78105 5.83333 5.33333 6.28105 5.33333 6.83333V6.84C5.33333 7.39228 5.78105 7.84 6.33333 7.84H6.34C6.89228 7.84 7.34 7.39228 7.34 6.84V6.83333C7.34 6.28105 6.89228 5.83333 6.34 5.83333H6.33333ZM9.66667 9.16667C9.11438 9.16667 8.66667 9.61438 8.66667 10.1667V10.1733C8.66667 10.7256 9.11438 11.1733 9.66667 11.1733H9.67333C10.2256 11.1733 10.6733 10.7256 10.6733 10.1733V10.1667C10.6733 9.61438 10.2256 9.16667 9.67333 9.16667H9.66667ZM10.4714 6.0286C10.7318 6.28895 10.7318 6.71106 10.4714 6.9714L6.4714 10.9714C6.21106 11.2318 5.78895 11.2318 5.5286 10.9714C5.26825 10.7111 5.26825 10.2889 5.5286 10.0286L9.5286 6.0286C9.78895 5.76825 10.2111 5.76825 10.4714 6.0286Z" fill="#D94C44"/>
</g>
<defs>
<clipPath id="clip0_20_117">
<rect width="16" height="16" fill="white" transform="translate(0 0.5)"/>
</clipPath>
</defs>
</svg>
