<svg width="16" height="17" viewBox="0 0 16 17" fill="none" xmlns="http://www.w3.org/2000/svg">
<g clip-path="url(#clip0_20_218)">
<path fill-rule="evenodd" clip-rule="evenodd" d="M1.33337 2.49992C1.33337 2.13173 1.63185 1.83325 2.00004 1.83325H3.33337C3.68173 1.83325 3.97136 2.10146 3.99808 2.44879L4.10457 3.83325H14C14.1897 3.83325 14.3703 3.91401 14.4968 4.0553C14.6233 4.1966 14.6836 4.38507 14.6626 4.57354L14.1186 9.46995C14.012 10.429 13.2358 11.1753 12.2733 11.244L5.37024 11.7371C4.27273 11.8155 3.31802 10.9926 3.23363 9.89555L2.82252 4.55105L2.71602 3.16659H2.00004C1.63185 3.16659 1.33337 2.86811 1.33337 2.49992ZM8.66667 6.16667C9.03486 6.16667 9.33333 6.46514 9.33333 6.83333V7.16667H9.66667C10.0349 7.16667 10.3333 7.46514 10.3333 7.83333C10.3333 8.20152 10.0349 8.5 9.66667 8.5H9.33333V8.83333C9.33333 9.20152 9.03486 9.5 8.66667 9.5C8.29848 9.5 8 9.20152 8 8.83333V8.5H7.66667C7.29848 8.5 7 8.20152 7 7.83333C7 7.46514 7.29848 7.16667 7.66667 7.16667H8V6.83333C8 6.46514 8.29848 6.16667 8.66667 6.16667ZM10.6667 14.1667C10.6667 13.6144 11.1144 13.1667 11.6667 13.1667H11.6733C12.2256 13.1667 12.6733 13.6144 12.6733 14.1667V14.1733C12.6733 14.7256 12.2256 15.1733 11.6733 15.1733H11.6667C11.1144 15.1733 10.6667 14.7256 10.6667 14.1733V14.1667ZM5.66667 13.1667C5.11438 13.1667 4.66667 13.6144 4.66667 14.1667V14.1733C4.66667 14.7256 5.11438 15.1733 5.66667 15.1733H5.67333C6.22562 15.1733 6.67333 14.7256 6.67333 14.1733V14.1667C6.67333 13.6144 6.22562 13.1667 5.67333 13.1667H5.66667Z" fill="#D94C44"/>
</g>
<defs>
<clipPath id="clip0_20_218">
<rect width="16" height="16" fill="white" transform="translate(0 0.5)"/>
</clipPath>
</defs>
</svg>
