<svg width="40" height="40" viewBox="0 0 40 40" fill="none" xmlns="http://www.w3.org/2000/svg">
<g clip-path="url(#clip0_204_271)">
<path fill-rule="evenodd" clip-rule="evenodd" d="M21.6666 10.0007C21.6666 9.08018 20.9204 8.33398 19.9999 8.33398C19.0794 8.33398 18.3333 9.08018 18.3333 10.0007V18.334H9.99992C9.07944 18.334 8.33325 19.0802 8.33325 20.0007C8.33325 20.9211 9.07944 21.6673 9.99992 21.6673H18.3333V30.0007C18.3333 30.9211 19.0794 31.6673 19.9999 31.6673C20.9204 31.6673 21.6666 30.9211 21.6666 30.0007V21.6673H29.9999C30.9204 21.6673 31.6666 20.9211 31.6666 20.0007C31.6666 19.0802 30.9204 18.334 29.9999 18.334H21.6666V10.0007Z" fill="white"/>
</g>
<defs>
<clipPath id="clip0_204_271">
<rect width="40" height="40" fill="white"/>
</clipPath>
</defs>
</svg>
