<svg width="24" height="25" viewBox="0 0 24 25" fill="none" xmlns="http://www.w3.org/2000/svg">
<path fill-rule="evenodd" clip-rule="evenodd" d="M9 3.5C8.44772 3.5 8 3.94772 8 4.5C8 5.05228 8.44772 5.5 9 5.5H18V18.5C18 19.0523 17.5523 19.5 17 19.5H9C8.44772 19.5 8 19.9477 8 20.5C8 21.0523 8.44772 21.5 9 21.5H17C18.6569 21.5 20 20.1569 20 18.5V4.5C20 3.94772 19.5523 3.5 19 3.5H9ZM12.7071 8.79289C12.4211 8.5069 11.991 8.42134 11.6173 8.57612C11.2436 8.7309 11 9.09554 11 9.5L11 11.5H5C4.44772 11.5 4 11.9477 4 12.5C4 13.0523 4.44772 13.5 5 13.5H11L11 15.5C11 15.9045 11.2436 16.2691 11.6173 16.4239C11.991 16.5787 12.4211 16.4931 12.7071 16.2071L15.7071 13.2071C16.0976 12.8166 16.0976 12.1834 15.7071 11.7929L12.7071 8.79289Z" fill="white"/>
</svg>
